<?xml version="1.0" standalone="no"?>
<!DOCTYPE svg PUBLIC "-//W3C//DTD SVG 20010904//EN"
 "http://www.w3.org/TR/2001/REC-SVG-20010904/DTD/svg10.dtd">
<svg version="1.0" xmlns="http://www.w3.org/2000/svg"
 width="512.000000pt" height="512.000000pt" viewBox="0 0 512.000000 512.000000"
 preserveAspectRatio="xMidYMid meet">
<metadata>
Created by potrace 1.14, written by Peter Selinger 2001-2017
</metadata>
<g transform="translate(0.000000,512.000000) scale(0.100000,-0.100000)"
fill="#000000" stroke="none">
<path d="M100 2560 l0 -2460 2460 0 2460 0 0 2460 0 2460 -2460 0 -2460 0 0
-2460z m2130 353 c0 -504 -5 -910 -10 -952 -25 -193 -97 -348 -215 -466 -129
-129 -269 -188 -483 -204 -399 -31 -698 116 -885 435 -6 11 237 262 256 264 5
1 30 -30 56 -67 54 -76 141 -160 205 -198 151 -89 374 -85 512 8 61 41 107
117 134 221 19 76 20 110 20 778 l0 698 -490 0 -490 0 0 180 0 180 695 0 695
0 0 -877z m1160 -173 l5 -1045 578 -3 577 -2 -2 -183 -3 -182 -769 -3 c-560
-1 -773 1 -782 9 -12 10 -14 215 -14 1229 0 669 3 1220 7 1224 4 3 95 5 202 4
l196 -3 5 -1045z"/>
</g>
</svg>
